<?xml version="1.0" encoding="utf-8"?>
<!-- Generator: Adobe Illustrator 19.1.0, SVG Export Plug-In . SVG Version: 6.00 Build 0)  -->
<svg version="1.1" id="Layer_1" xmlns="http://www.w3.org/2000/svg" xmlns:xlink="http://www.w3.org/1999/xlink" x="0px" y="0px"
	 viewBox="0 0 351.9 640.2" enable-background="new 0 0 351.9 640.2" xml:space="preserve">
<g>
	<path fill="#212120" d="M292.6,5.6c0,3.1-2.5,5.6-5.6,5.6h-29.8c-3.1,0-5.6-2.5-5.6-5.6l0,0c0-3.1,2.5-5.6,5.6-5.6h29.8
		C290.1,0,292.6,2.5,292.6,5.6L292.6,5.6z"/>
	<path fill="#30302F" d="M351.9,607.3c0,18.1-15.1,32.8-33.8,32.8H33.8C15.1,640.2,0,625.5,0,607.3V38.5C0,20.3,15.1,5.6,33.8,5.6
		h284.3c18.7,0,33.8,14.7,33.8,32.8V607.3z"/>
	<g>
		<circle fill="#212120" cx="176" cy="597.1" r="23.9"/>
		<path fill="none" stroke="#30302F" stroke-width="0.4214" stroke-miterlimit="10" d="M186.8,603.1c0,2.7-2.2,4.8-4.8,4.8h-12.1
			c-2.7,0-4.8-2.2-4.8-4.8v-12.1c0-2.7,2.2-4.8,4.8-4.8H182c2.7,0,4.8,2.2,4.8,4.8V603.1z"/>
	</g>
	<rect x="20.5" y="78.2" fill="none" width="310.9" height="479.8"/>
	<path fill="#212120" d="M206.8,49.2c0,1.7-1.4,3.1-3.1,3.1h-55.5c-1.7,0-3.1-1.4-3.1-3.1l0,0c0-1.7,1.4-3.1,3.1-3.1h55.5
		C205.4,46.1,206.8,47.5,206.8,49.2L206.8,49.2z"/>
	<path fill="#212120" d="M195.5,35.9c0,1.7-1.4,3.1-3.1,3.1h-32.8c-1.7,0-3.1-1.4-3.1-3.1l0,0c0-1.7,1.4-3.1,3.1-3.1h32.8
		C194.1,32.8,195.5,34.2,195.5,35.9L195.5,35.9z"/>
	<path fill="#212120" d="M133.9,49.2c0,3.1-2.5,5.6-5.6,5.6c-3.1,0-5.6-2.5-5.6-5.6c0-3.1,2.5-5.7,5.6-5.7
		C131.3,43.6,133.9,46.1,133.9,49.2z"/>
	<g>
		<defs>
			<rect id="SVGID_3_" x="15.9" y="78.2" width="320.2" height="479.8"/>
		</defs>
		<use xlink:href="#SVGID_3_"  overflow="visible" fill="#FAAF40"/>
		<clipPath id="SVGID_1_">
			<use xlink:href="#SVGID_3_"  overflow="visible"/>
		</clipPath>
	</g>
</g>
</svg>
