<?xml version="1.0" encoding="utf-8"?>
<!-- Generator: Adobe Illustrator 19.1.0, SVG Export Plug-In . SVG Version: 6.00 Build 0)  -->
<svg version="1.1" id="Layer_1" xmlns="http://www.w3.org/2000/svg" xmlns:xlink="http://www.w3.org/1999/xlink" x="0px" y="0px"
	 viewBox="0 0 640.2 351.9" enable-background="new 0 0 640.2 351.9" xml:space="preserve">
<g>
	<path fill="#212120" d="M5.6,59.3c3.1,0,5.6,2.5,5.6,5.6v29.8c0,3.1-2.5,5.6-5.6,5.6l0,0c-3.1,0-5.6-2.5-5.6-5.6L0,65
		C0,61.9,2.5,59.3,5.6,59.3L5.6,59.3z"/>
	<path fill="#30302F" d="M607.3,0c18.1,0,32.8,15.1,32.8,33.8v284.3c0,18.7-14.7,33.8-32.8,33.8H38.5c-18.1,0-32.8-15.1-32.8-33.8
		V33.8C5.6,15.1,20.3,0,38.5,0L607.3,0z"/>
	<g>
		<circle fill="#212120" cx="597.1" cy="176" r="23.9"/>
		<path fill="none" stroke="#30302F" stroke-width="0.4214" stroke-miterlimit="10" d="M603.1,165.1c2.7,0,4.8,2.2,4.8,4.8V182
			c0,2.7-2.2,4.8-4.8,4.8h-12.1c-2.7,0-4.8-2.2-4.8-4.8v-12.1c0-2.7,2.2-4.8,4.8-4.8H603.1z"/>
	</g>
	<rect x="78.2" y="20.5" fill="none" width="479.8" height="310.9"/>
	<path fill="#212120" d="M49.2,145.1c1.7,0,3.1,1.4,3.1,3.1v55.5c0,1.7-1.4,3.1-3.1,3.1l0,0c-1.7,0-3.1-1.4-3.1-3.1v-55.5
		C46.1,146.5,47.5,145.1,49.2,145.1L49.2,145.1z"/>
	<path fill="#212120" d="M35.9,156.5c1.7,0,3.1,1.4,3.1,3.1v32.8c0,1.7-1.4,3.1-3.1,3.1l0,0c-1.7,0-3.1-1.4-3.1-3.1v-32.8
		C32.8,157.8,34.2,156.5,35.9,156.5L35.9,156.5z"/>
	<path fill="#212120" d="M49.2,218.1c3.1,0,5.6,2.5,5.6,5.6c0,3.1-2.5,5.6-5.6,5.6c-3.1,0-5.7-2.5-5.7-5.6
		C43.6,220.6,46.1,218.1,49.2,218.1z"/>
	<g>
		<defs>
			<rect id="SVGID_3_" x="78.2" y="15.9" width="479.8" height="320.2"/>
		</defs>
		<use xlink:href="#SVGID_3_"  overflow="visible" fill="#FAAF40"/>
		<clipPath id="SVGID_1_">
			<use xlink:href="#SVGID_3_"  overflow="visible"/>
		</clipPath>
	</g>
</g>
</svg>
