<?xml version="1.0" encoding="utf-8"?>
<!-- Generator: Adobe Illustrator 20.0.0, SVG Export Plug-In . SVG Version: 6.00 Build 0)  -->
<svg version="1.1" id="Layer_1" xmlns="http://www.w3.org/2000/svg" xmlns:xlink="http://www.w3.org/1999/xlink" x="0px" y="0px"
	 viewBox="0 0 300 300" enable-background="new 0 0 300 300" xml:space="preserve">
<polygon opacity="2.000000e-02" points="145.8,94.1 103.9,94.3 80.4,129 67.2,89.3 27,77.6 60.7,52.8 59.3,11 93.4,35.3 132.8,21.1 
	120.1,61 "/>
<polygon opacity="2.000000e-02" points="288,168.5 239.9,174.5 217.5,217.5 196.9,173.6 149.1,165.6 184.5,132.5 177.3,84.5 
	219.8,107.9 263.1,86.3 254,133.9 "/>
<polygon opacity="2.000000e-02" points="128.9,286.6 91.7,261.8 50.1,278.4 62.1,235.3 33.5,200.9 78.2,199 102.1,161.1 
	117.6,203.1 161.1,214.1 126,241.9 "/>
</svg>
