<?xml version="1.0" encoding="iso-8859-1"?>
<!-- Generator: Adobe Illustrator 19.1.0, SVG Export Plug-In . SVG Version: 6.00 Build 0)  -->
<svg version="1.1" xmlns="http://www.w3.org/2000/svg" xmlns:xlink="http://www.w3.org/1999/xlink" x="0px" y="0px"
	 viewBox="0 0 44 44" style="enable-background:new 0 0 44 44;" xml:space="preserve">
<g id="layout-lrg-s.colors-color2">
	<rect y="0" style="opacity:0;" width="44" height="44"/>
	<polygon style="fill:#FFFFFF;" points="22,0 22,22 0,22 0,44 44,44 44,0 	"/>
	<path style="fill:#FFFFFF;" d="M14.873,6.895c0,0-2.396-0.271-3.383-0.271c-1.258,0-1.853,0.459-1.853,1.224
		c0,0.73,0.459,0.985,2.396,1.598c2.499,0.799,3.264,1.496,3.264,3.417c0,2.516-1.717,3.688-3.994,3.688
		c-1.581,0-3.859-0.527-3.859-0.527l0.238-1.818c0,0,2.277,0.306,3.484,0.306c1.258,0,1.802-0.595,1.802-1.496
		c0-0.714-0.407-1.036-2.073-1.513c-2.601-0.748-3.587-1.632-3.587-3.484c0-2.396,1.598-3.434,3.943-3.434
		c1.547,0,3.808,0.459,3.808,0.459L14.873,6.895z"/>
</g>
<g id="Layer_1">
</g>
</svg>
