<?xml version="1.0" encoding="iso-8859-1"?>
<!-- Generator: Adobe Illustrator 19.1.0, SVG Export Plug-In . SVG Version: 6.00 Build 0)  -->
<svg version="1.1" xmlns="http://www.w3.org/2000/svg" xmlns:xlink="http://www.w3.org/1999/xlink" x="0px" y="0px"
	 viewBox="0 0 44 44" style="enable-background:new 0 0 44 44;" xml:space="preserve">
<g id="layout-sml-half.colors-color2">
	<rect style="opacity:0;" width="44" height="44"/>
	<g>
		<path style="fill:#FFFFFF;" d="M33.5,10.5v23h-23v-23H33.5 M34.5,9.5h-25v25h25V9.5L34.5,9.5z"/>
	</g>
	<path style="fill:#FFFFFF;" d="M9.5,9.984v24h13v-24H9.5z M15.999,19.874c-0.93,0-2.269-0.31-2.269-0.31l0.14-1.07
		c0,0,1.339,0.181,2.049,0.181c0.739,0,1.06-0.351,1.06-0.88c0-0.42-0.24-0.609-1.22-0.89c-1.529-0.439-2.108-0.959-2.108-2.049
		c0-1.409,0.939-2.019,2.318-2.019c0.909,0,2.239,0.27,2.239,0.27l-0.11,1.09c0,0-1.409-0.16-1.989-0.16
		c-0.739,0-1.089,0.27-1.089,0.72c0,0.43,0.27,0.579,1.409,0.939c1.469,0.47,1.919,0.879,1.919,2.009
		C18.348,19.184,17.338,19.874,15.999,19.874z"/>
	<path style="fill:#FFFFFF;" d="M30.913,12.458l-1.579,6.796h-2.549l-1.579-6.796h1.449l1.179,5.597h0.45l1.18-5.597H30.913z"/>
</g>
<g id="Layer_1">
</g>
</svg>
