<?xml version="1.0" encoding="iso-8859-1"?>
<!-- Generator: Adobe Illustrator 19.1.0, SVG Export Plug-In . SVG Version: 6.00 Build 0)  -->
<svg version="1.1" xmlns="http://www.w3.org/2000/svg" xmlns:xlink="http://www.w3.org/1999/xlink" x="0px" y="0px"
	 viewBox="0 0 44 44" style="enable-background:new 0 0 44 44;" xml:space="preserve">
<g id="pause.colors-color2">
	<rect style="opacity:0;" width="44" height="44"/>
	<path style="fill:#FFFFFF;" d="M20.572,29.853c0,0.391-0.323,0.714-0.714,0.714h-5.711c-0.391,0-0.714-0.323-0.714-0.714V14.147
		c0-0.391,0.323-0.714,0.714-0.714h5.711c0.391,0,0.714,0.323,0.714,0.714V29.853z M30.566,29.853c0,0.391-0.323,0.714-0.714,0.714
		h-5.711c-0.391,0-0.714-0.323-0.714-0.714V14.147c0-0.391,0.323-0.714,0.714-0.714h5.711c0.391,0,0.714,0.323,0.714,0.714V29.853z"
		/>
</g>
<g id="Layer_1">
</g>
</svg>
