<?xml version="1.0" encoding="iso-8859-1"?>
<!-- Generator: Adobe Illustrator 19.1.0, SVG Export Plug-In . SVG Version: 6.00 Build 0)  -->
<svg version="1.1" xmlns="http://www.w3.org/2000/svg" xmlns:xlink="http://www.w3.org/1999/xlink" x="0px" y="0px"
	 viewBox="0 0 44 44" style="enable-background:new 0 0 44 44;" xml:space="preserve">
<g id="quality-md-half.colors-color2">
	<rect style="opacity:0;" width="44" height="44"/>
	<g>
		<path style="fill:#FFFFFF;" d="M8.833,15.93h4.935l2.52,10.414l2.52-10.414h4.934v14.277h-2.897V19.164h-0.315l-2.792,10.414
			h-2.897l-2.793-10.414H11.73v11.044H8.833V15.93z"/>
		<path style="fill:#FFFFFF;" d="M35.418,30.208h-2.793v-0.44c0,0-1.47,0.692-2.541,0.692c-3.17,0-4.094-1.848-4.094-5.543
			c0-3.843,1.49-5.459,4.346-5.459c0.777,0,2.268,0.294,2.268,0.294V15.51h2.814V30.208z M32.604,27.625v-5.521
			c0,0-1.154-0.21-2.057-0.21c-1.051,0-1.701,0.903-1.701,3.023c0,2.142,0.398,3.023,1.722,3.023
			C31.555,27.94,32.604,27.625,32.604,27.625z"/>
	</g>
</g>
<g id="Layer_1">
</g>
</svg>
