<?xml version="1.0" encoding="iso-8859-1"?>
<!-- Generator: Adobe Illustrator 19.1.0, SVG Export Plug-In . SVG Version: 6.00 Build 0)  -->
<svg version="1.1" xmlns="http://www.w3.org/2000/svg" xmlns:xlink="http://www.w3.org/1999/xlink" x="0px" y="0px"
	 viewBox="0 0 44 44" style="enable-background:new 0 0 44 44;" xml:space="preserve">
<g id="settings-half.colors-color2">
	<rect style="opacity:0;" width="44" height="44"/>
	<g>
		<path style="fill:#FFFFFF;" d="M32.708,23.858c0,0.209-0.167,0.46-0.391,0.502l-2.58,0.391c-0.153,0.446-0.32,0.864-0.544,1.269
			c0.475,0.684,0.977,1.298,1.492,1.925c0.084,0.098,0.14,0.224,0.14,0.349c0,0.126-0.042,0.224-0.126,0.321
			c-0.334,0.446-2.217,2.496-2.691,2.496c-0.125,0-0.251-0.056-0.362-0.126l-1.925-1.506c-0.404,0.209-0.837,0.391-1.27,0.53
			c-0.097,0.851-0.181,1.757-0.404,2.594c-0.056,0.224-0.251,0.391-0.502,0.391H20.45c-0.251,0-0.475-0.182-0.502-0.418
			l-0.391-2.566c-0.433-0.14-0.851-0.307-1.256-0.517l-1.966,1.492c-0.098,0.084-0.224,0.126-0.349,0.126
			c-0.126,0-0.251-0.056-0.349-0.153c-0.739-0.67-1.716-1.534-2.302-2.343c-0.069-0.098-0.098-0.21-0.098-0.321
			c0-0.125,0.042-0.223,0.112-0.32c0.474-0.642,0.99-1.256,1.464-1.911c-0.237-0.446-0.433-0.906-0.571-1.381l-2.553-0.376
			c-0.237-0.042-0.404-0.266-0.404-0.502v-3.097c0-0.209,0.167-0.46,0.377-0.502l2.594-0.391c0.14-0.446,0.32-0.864,0.544-1.283
			c-0.475-0.669-0.977-1.297-1.492-1.924c-0.084-0.098-0.14-0.21-0.14-0.335c0-0.126,0.056-0.224,0.126-0.321
			c0.334-0.46,2.217-2.496,2.691-2.496c0.125,0,0.251,0.056,0.362,0.14l1.925,1.492c0.404-0.209,0.837-0.391,1.27-0.53
			c0.097-0.851,0.181-1.757,0.404-2.594c0.056-0.224,0.251-0.391,0.502-0.391h3.096c0.251,0,0.475,0.182,0.502,0.418l0.391,2.566
			c0.433,0.14,0.851,0.307,1.256,0.517l1.979-1.492c0.084-0.084,0.21-0.126,0.335-0.126c0.126,0,0.251,0.056,0.349,0.14
			c0.739,0.684,1.716,1.548,2.302,2.371c0.069,0.083,0.098,0.195,0.098,0.307c0,0.125-0.042,0.223-0.112,0.32
			c-0.474,0.642-0.99,1.256-1.464,1.911c0.237,0.446,0.433,0.906,0.571,1.366l2.553,0.391c0.237,0.042,0.404,0.266,0.404,0.502
			V23.858z M21.998,18.711c-1.967,0-3.57,1.604-3.57,3.57s1.604,3.57,3.57,3.57s3.57-1.604,3.57-3.57S23.964,18.711,21.998,18.711z"
			/>
	</g>
</g>
<g id="Layer_1">
</g>
</svg>
