<?xml version="1.0" encoding="iso-8859-1"?>
<!-- Generator: Adobe Illustrator 19.1.0, SVG Export Plug-In . SVG Version: 6.00 Build 0)  -->
<svg version="1.1" xmlns="http://www.w3.org/2000/svg" xmlns:xlink="http://www.w3.org/1999/xlink" x="0px" y="0px"
	 viewBox="0 0 44 44" style="enable-background:new 0 0 44 44;" xml:space="preserve">
<g id="sound-on.colors-color2">
	<rect style="opacity:0;" width="44" height="44"/>
	<path style="fill:#FFFFFF;" d="M21.107,29.587c0,0.488-0.404,0.893-0.893,0.893c-0.237,0-0.46-0.098-0.628-0.265l-4.644-4.645
		h-3.654c-0.488,0-0.893-0.404-0.893-0.893v-5.355c0-0.488,0.404-0.893,0.893-0.893h3.654l4.644-4.645
		c0.168-0.167,0.391-0.265,0.628-0.265c0.488,0,0.893,0.404,0.893,0.893V29.587z M24.301,25.277
		c-0.111,0.056-0.236,0.069-0.349,0.069c-0.487,0-0.893-0.39-0.893-0.893c0-1.06,1.618-0.767,1.618-2.454s-1.618-1.395-1.618-2.454
		c0-0.503,0.405-0.893,0.893-0.893c0.112,0,0.237,0.014,0.349,0.069c1.312,0.516,2.162,1.883,2.162,3.277
		S25.612,24.747,24.301,25.277z M25.71,28.568c-0.111,0.042-0.237,0.07-0.349,0.07c-0.502,0-0.906-0.404-0.906-0.893
		c0-0.391,0.223-0.655,0.543-0.823c0.377-0.195,0.726-0.362,1.061-0.613c1.381-1.004,2.189-2.608,2.189-4.31
		s-0.809-3.306-2.189-4.31c-0.335-0.251-0.684-0.418-1.061-0.613c-0.32-0.168-0.543-0.433-0.543-0.823
		c0-0.488,0.404-0.893,0.893-0.893c0.125,0,0.251,0.028,0.362,0.07c2.622,1.102,4.323,3.737,4.323,6.568S28.332,27.467,25.71,28.568
		z M27.118,31.847c-0.111,0.041-0.237,0.069-0.362,0.069c-0.488,0-0.893-0.404-0.893-0.893c0-0.404,0.209-0.628,0.544-0.823
		c0.195-0.111,0.418-0.181,0.628-0.293c0.39-0.209,0.78-0.446,1.144-0.711c2.287-1.688,3.64-4.352,3.64-7.196
		s-1.353-5.509-3.64-7.196c-0.363-0.265-0.754-0.502-1.144-0.711c-0.21-0.112-0.433-0.182-0.628-0.293
		c-0.335-0.195-0.544-0.419-0.544-0.823c0-0.488,0.404-0.893,0.893-0.893c0.125,0,0.251,0.028,0.362,0.069
		c3.934,1.688,6.485,5.565,6.485,9.847S31.052,30.159,27.118,31.847z"/>
</g>
<g id="Layer_1">
</g>
</svg>
