<?xml version="1.0" encoding="iso-8859-1"?>
<!-- Generator: Adobe Illustrator 19.1.0, SVG Export Plug-In . SVG Version: 6.00 Build 0)  -->
<svg version="1.1" xmlns="http://www.w3.org/2000/svg" xmlns:xlink="http://www.w3.org/1999/xlink" x="0px" y="0px"
	 viewBox="0 0 44 44" style="enable-background:new 0 0 44 44;" xml:space="preserve">
<g id="subtitles.colors-color2">
	<rect style="opacity:0;" width="44" height="44"/>
	<path style="fill:#FFFFFF;" d="M7.5,9.5v25h29v-25H7.5z M17.653,25.683c0.782,0,2.228-0.136,2.907-0.237l0.051,1.921
		c-0.782,0.17-2.312,0.391-3.365,0.391c-3.57,0-4.42-1.938-4.42-5.983c0-4.386,0.986-5.983,4.42-5.983
		c1.207,0,2.669,0.289,3.383,0.459l-0.068,1.87c-0.782-0.119-2.21-0.256-2.975-0.256c-1.785,0-2.346,0.629-2.346,3.91
		C15.24,24.884,15.648,25.683,17.653,25.683z M28.585,25.683c0.782,0,2.228-0.136,2.907-0.237l0.051,1.921
		c-0.782,0.17-2.312,0.391-3.365,0.391c-3.57,0-4.42-1.938-4.42-5.983c0-4.386,0.986-5.983,4.42-5.983
		c1.207,0,2.669,0.289,3.383,0.459l-0.068,1.87c-0.782-0.119-2.21-0.256-2.975-0.256c-1.785,0-2.346,0.629-2.346,3.91
		C26.172,24.884,26.58,25.683,28.585,25.683z"/>
</g>
<g id="Layer_1">
</g>
</svg>
