<?xml version="1.0" encoding="iso-8859-1"?>
<!-- Generator: Adobe Illustrator 19.1.0, SVG Export Plug-In . SVG Version: 6.00 Build 0)  -->
<svg version="1.1" xmlns="http://www.w3.org/2000/svg" xmlns:xlink="http://www.w3.org/1999/xlink" x="0px" y="0px"
	 viewBox="0 0 44 44" style="enable-background:new 0 0 44 44;" xml:space="preserve">
<g id="times.colors-color2">
	<rect style="opacity:0;" width="44" height="44"/>
	<g>
		<path style="fill:#FFFFFF;" d="M29.891,29.172l-1.896,1.896c-0.251,0.251-0.6,0.391-0.948,0.391s-0.697-0.14-0.948-0.391
			l-4.101-4.1l-4.101,4.1c-0.251,0.251-0.6,0.391-0.948,0.391s-0.697-0.14-0.948-0.391l-1.896-1.896
			c-0.251-0.251-0.391-0.6-0.391-0.948s0.14-0.697,0.391-0.948l4.1-4.101l-4.1-4.101c-0.251-0.251-0.391-0.6-0.391-0.948
			s0.14-0.697,0.391-0.948L16,15.281c0.251-0.251,0.6-0.391,0.948-0.391s0.697,0.14,0.948,0.391l4.101,4.1l4.101-4.1
			c0.251-0.251,0.6-0.391,0.948-0.391s0.697,0.14,0.948,0.391l1.896,1.896c0.251,0.251,0.391,0.6,0.391,0.948
			s-0.14,0.697-0.391,0.948l-4.1,4.101l4.1,4.101c0.251,0.251,0.391,0.6,0.391,0.948S30.142,28.921,29.891,29.172z"/>
	</g>
</g>
<g id="Layer_1">
</g>
</svg>
