<?xml version="1.0" encoding="iso-8859-1"?>
<!-- Generator: Adobe Illustrator 19.1.0, SVG Export Plug-In . SVG Version: 6.00 Build 0)  -->
<svg version="1.1" xmlns="http://www.w3.org/2000/svg" xmlns:xlink="http://www.w3.org/1999/xlink" x="0px" y="0px"
	 viewBox="0 0 44 44" style="enable-background:new 0 0 44 44;" xml:space="preserve">
<g id="video-c.colors-color1">
	<rect style="opacity:0;" width="44" height="44"/>
	<g>
		<path style="fill:#FFFFFF;" d="M31.637,26.841c-0.233,1.093-1.104,1.896-2.152,2.019c-2.477,0.279-4.986,0.279-7.484,0.279
			s-5.008,0-7.484-0.279c-1.049-0.122-1.919-0.926-2.164-2.019c-0.346-1.551-0.346-3.246-0.346-4.841s0-3.29,0.357-4.841
			c0.245-1.093,1.104-1.896,2.152-2.019c2.477-0.279,4.986-0.279,7.484-0.279s5.008,0,7.484,0.279
			c1.049,0.122,1.919,0.926,2.164,2.019c0.346,1.551,0.346,3.246,0.346,4.841S31.994,25.29,31.637,26.841z M25.948,21.397
			l-5.711-3.569c-0.223-0.145-0.502-0.145-0.725-0.022c-0.224,0.123-0.368,0.368-0.368,0.625v7.139c0,0.257,0.145,0.502,0.368,0.625
			c0.111,0.056,0.223,0.089,0.346,0.089c0.134,0,0.268-0.033,0.379-0.111l5.711-3.569c0.212-0.123,0.335-0.357,0.335-0.603
			S26.16,21.521,25.948,21.397z"/>
	</g>
</g>
<g id="Layer_1">
</g>
</svg>
